PathFileType	4	(X/Y/Z)	..\data\2015043\dynamic\2015043_C4_04.trc
DataRate	CameraRate	NumFrames	NumMarkers	Units	OrigDataRate	OrigDataStartFrame	OrigNumFrames
100.000000	100.000000	4	52	mm	100.000000	116	232
Frame#	Time	L_IAS			L_IPS			R_IPS			R_IAS			L_FTC			L_FLE			L_FME			L_FAX			L_TTC			L_FAL			L_TAM			L_FCC			L_FM1			L_FM2			L_FM5			R_FTC			R_FLE			R_FME			R_FAX			R_TTC			R_FAL			R_TAM			R_FCC			R_FM1			R_FM2			R_FM5			CV7			TV10			SXS			SJN			L_SIA			L_SRS			L_SAA			L_SAE			L_HLE			L_HME			L_UOA			L_RSP			L_UHE			L_HM2			L_HM5			R_SIA			R_SRS			R_SAA			R_SAE			R_HLE			R_HME			R_UOA			R_RSP			R_UHE			R_HM2			R_HM5			
		X1	Y1	Z1	X2	Y2	Z2	X3	Y3	Z3	X4	Y4	Z4	X5	Y5	Z5	X6	Y6	Z6	X7	Y7	Z7	X8	Y8	Z8	X9	Y9	Z9	X10	Y10	Z10	X11	Y11	Z11	X12	Y12	Z12	X13	Y13	Z13	X14	Y14	Z14	X15	Y15	Z15	X16	Y16	Z16	X17	Y17	Z17	X18	Y18	Z18	X19	Y19	Z19	X20	Y20	Z20	X21	Y21	Z21	X22	Y22	Z22	X23	Y23	Z23	X24	Y24	Z24	X25	Y25	Z25	X26	Y26	Z26	X27	Y27	Z27	X28	Y28	Z28	X29	Y29	Z29	X30	Y30	Z30	X31	Y31	Z31	X32	Y32	Z32	X33	Y33	Z33	X34	Y34	Z34	X35	Y35	Z35	X36	Y36	Z36	X37	Y37	Z37	X38	Y38	Z38	X39	Y39	Z39	X40	Y40	Z40	X41	Y41	Z41	X42	Y42	Z42	X43	Y43	Z43	X44	Y44	Z44	X45	Y45	Z45	X46	Y46	Z46	X47	Y47	Z47	X48	Y48	Z48	X49	Y49	Z49	X50	Y50	Z50	X51	Y51	Z51	X52	Y52	Z52	

117	1.16	-306.3253173828126	997.778015136719	168.2420043945312	-479.5593261718752	1011.63427734375	251.6076049804688	-471.1705932617189	1017.362426757813	349.221923828125	-291.9066162109376	1006.496337890625	411.4276123046876	-391.167205810547	902.1456298828127	114.5974960327148	-290.5205688476563	502.9347534179689	76.59884643554685	-254.4499511718751	474.960662841797	193.9382629394532	-331.1904296875001	454.0700988769532	74.94755554199216	-276.0022583007813	397.3237609863282	106.8906326293945	-586.9331054687501	239.7058868408204	156.2847747802734	-535.4694824218751	204.7313079833985	228.8074035644531	-637.9462890625001	237.2341918945313	220.8028259277343	-539.0460205078126	67.40469360351564	201.3452606201172	-545.0708007812501	78.82493591308595	140.4793701171875	-592.5624389648439	112.3995056152344	112.0682983398437	-386.9827880859377	910.035583496094	464.0031738281251	-321.0751342773439	486.5775756835939	413.3059082031251	-315.4378356933595	488.0230102539064	289.5221557617188	-331.242156982422	418.2614135742189	414.8717346191407	-268.615692138672	412.2727661132814	350.9336853027344	-383.5628662109376	77.17880249023439	351.8136901855469	-346.9056701660157	96.29720306396487	263.8253173828125	-428.371063232422	30.33199119567872	301.1449890136719	-221.3831939697266	27.85033607482911	289.1014099121094	-226.0366363525391	37.8537826538086	346.7464294433594	-286.5746459960939	25.8815097808838	398.9189758300782	-426.6462402343752	1516.838134765625	296.1856689453125	-490.6737365722658	1289.709838867188	296.2452697753906	-260.7571716308595	1283.405639648438	297.2642517089844	-310.3352050781251	1436.452026367188	301.4285278320312	-514.6935424804689	1319.282958984375	197.9106903076172	-483.0839843750001	1445.55322265625	201.6726379394531	-425.4181518554689	1452.38818359375	114.5749130249023	-382.0807800292969	1454.675659179688	95.24082946777341	-372.7329406738282	1124.757690429688	5.594402790069536	-416.3638610839845	1104.052734375	81.36463928222652	-412.4510498046876	1085.882080078125	21.9342880249023	-221.9777832031251	907.719421386719	83.2915573120117	-245.3535919189454	890.8587036132815	11.77474880218503	-169.291000366211	832.1355590820315	89.80809783935547	-238.5411071777344	819.064636230469	12.62305450439451	-518.7771606445314	1319.087524414063	376.557861328125	-489.5870971679689	1439.947387695313	376.8664245605469	-457.1263122558595	1443.56982421875	474.1487121582032	-427.2069396972658	1440.200805664063	510.5172729492188	-455.5438232421877	1110.079345703125	568.8520507812501	-479.777313232422	1102.664672851563	500.2614746093751	-486.3440856933595	1079.598754882813	534.343505859375	-312.621307373047	876.0614013671877	541.8018798828126	-384.5809020996095	861.7282714843752	580.1583862304689	-278.7673645019532	794.0904541015627	546.5582885742189	-375.2650756835939	788.1849365234377	584.5764770507814	
118	1.17	-299.9693908691407	998.7729492187502	168.8801879882812	-473.1706542968752	1012.381042480469	252.0392150878906	-464.765838623047	1017.781005859375	349.7025146484375	-285.4763793945314	1006.616027832031	412.1628417968751	-384.0348205566407	903.3295898437502	114.8180694580078	-276.7550964355469	505.0660400390626	77.79347991943358	-240.8547821044923	477.7022094726564	195.3182678222657	-316.7595825195313	455.6089477539064	76.22075653076169	-260.5101013183594	399.8978881835939	108.0571823120117	-568.3798217773439	235.6692352294922	155.8622131347656	-516.3425292968751	201.9235534667969	228.5326232910156	-620.8106079101564	229.9974060058594	219.4950256347656	-512.4852294921876	65.39793395996095	198.2551727294922	-518.1668090820314	77.9595413208008	137.5671844482422	-566.8930664062501	109.3629379272461	109.0873260498046	-381.1720275878907	910.1304321289065	464.1985473632813	-319.3638610839845	486.4064331054689	413.6600036621094	-313.504852294922	487.8299560546876	289.9587097167969	-330.0559082031251	418.1043701171876	415.1941528320313	-267.4577941894532	411.7819213867189	351.2908020019531	-383.5440368652345	77.21105957031251	351.6941223144531	-346.6885681152345	96.31782531738284	263.7387390136719	-428.5894470214845	30.60567855834962	301.1095275878906	-221.3365325927735	27.85356330871583	289.1903686523438	-226.052719116211	37.85392379760743	346.8329467773438	-286.6363220214845	25.8487892150879	398.9574279785157	-420.0878295898439	1517.409545898438	297.2239990234375	-484.2475585937502	1290.213134765625	297.4557495117188	-254.3807983398438	1283.849731445313	297.9133605957031	-303.821746826172	1436.927368164063	302.1039733886719	-508.5166625976564	1319.791137695313	199.26171875	-476.9697875976564	1446.030883789063	202.9298706054688	-419.6470642089845	1452.849731445313	115.6571960449218	-376.4199218750001	1455.185668945313	96.16709136962889	-367.9506530761719	1125.533081054688	5.664562702178911	-410.7460327148439	1104.649780273438	81.94927215576168	-407.3504333496095	1086.473754882813	22.4181747436523	-214.6541748046876	909.6011962890627	81.52735900878905	-239.7236938476563	892.013366699219	10.6773233413696	-161.0034484863282	834.6456298828127	86.84727478027344	-232.1443939208985	820.329772949219	11.63837337493894	-512.1511230468751	1319.732421875	378.0322875976562	-482.8637695312502	1440.556030273438	378.1110229492188	-450.073699951172	1444.204956054688	475.2952270507813	-420.0225524902345	1440.842895507813	511.5686950683594	-446.9898986816408	1110.585693359375	570.7992553710939	-471.5218505859377	1102.899047851563	502.3004150390626	-477.7605285644533	1079.850463867188	536.4666748046875	-302.6417846679689	877.4954833984377	543.2927856445314	-374.3499450683595	862.7253417968752	582.0371704101564	-268.2012939453126	795.7632446289065	548.0004272460939	-364.495086669922	789.2415771484377	586.5023193359376	
119	1.18	-293.6671447753907	999.708923339844	169.45263671875	-466.8330688476564	1013.042175292969	252.4496612548828	-458.402069091797	1018.168273925781	350.1454772949219	-279.0747070312501	1006.673278808594	412.8281860351563	-377.0166015625001	904.4158935546877	115.0257797241211	-263.2685852050782	507.1494750976564	79.16237640380858	-227.531478881836	480.4570922851564	196.8695678710938	-302.5295410156251	456.9748840332032	77.60233306884763	-245.1431274414063	402.460662841797	109.4189758300781	-549.3574218750001	230.8347167968751	155.3694915771484	-496.6746826171876	198.4073944091797	228.1698303222656	-602.9671020507814	221.9755249023438	218.1402587890625	-485.3432006835939	63.05149078369142	195.1613006591797	-490.9412536621095	76.70014953613283	134.6796264648437	-540.8934326171876	105.8823547363282	106.2046966552734	-375.391571044922	910.2010498046877	464.3427734375001	-317.7480468750001	486.2350158691407	414.0142822265626	-311.7222595214845	487.6263122558595	290.3875732421875	-328.9487609863282	417.9485778808595	415.5283813476563	-266.4060668945314	411.3059692382814	351.6371154785156	-383.5289001464845	77.23473358154298	351.5807800292969	-346.4889526367189	96.35673522949222	263.6688842773438	-428.8079833984377	30.86705017089844	301.0843505859375	-221.3001861572266	27.84990501403809	289.2769470214844	-226.075897216797	37.85195541381837	346.9139099121094	-286.6983642578126	25.81361770629884	398.9909057617188	-413.5541076660158	1517.9248046875	298.1948547363281	-477.8301086425783	1290.665161132813	298.6097106933594	-248.0015106201173	1284.25927734375	298.5014953613281	-297.323211669922	1437.366577148438	302.7123718261719	-502.3535766601564	1320.241821289063	200.5648040771484	-470.869354248047	1446.451782226563	204.1263275146484	-413.8921508789064	1453.251831054688	116.6780242919922	-370.7781982421876	1455.63427734375	97.02860260009764	-363.2047729492188	1126.258178710938	5.686656951904253	-405.2119750976564	1105.1953125	82.45190429687497	-402.298797607422	1087.012084960938	22.83440208435054	-207.5084991455079	911.4344482421877	79.78970336914061	-234.1393127441407	893.1043701171877	9.624822616577122	-152.9499816894532	837.0849609375002	84.00979614257812	-225.8790130615235	821.5126953125002	10.75806713104245	-505.5491638183595	1320.333984375	379.4386596679688	-476.151336669922	1441.11962890625	379.2912292480469	-443.0296325683595	1444.79296875	476.3760375976563	-412.8472595214845	1441.422485351563	512.5547485351564	-438.5053100585939	1111.056518554688	572.6656494140626	-463.2965393066408	1103.077270507813	504.2530822753907	-469.2393493652345	1080.0517578125	538.509765625	-292.7103271484376	878.907409667969	544.7549438476564	-364.1771850585939	863.6802368164065	583.8273315429689	-257.6711425781251	797.4253540039065	549.4457397460939	-353.7849731445314	790.2586669921877	588.3277587890626	
120	1.19	-287.4051208496094	1000.572509765625	169.9696502685547	-460.5399475097658	1013.611389160156	252.8331146240234	-452.0794372558595	1018.515014648438	350.5460510253906	-272.704559326172	1006.65966796875	413.4346618652344	-370.0924072265626	905.3955078125002	115.2168960571289	-250.0673522949219	509.1679687500001	80.66764831542967	-214.4885864257813	483.201629638672	198.5582275390625	-288.4972534179688	458.1542358398439	79.05721282958983	-229.9159088134766	405.0012817382814	110.947868347168	-529.8345336914064	225.280258178711	154.8294830322265	-476.4491271972657	194.2381896972657	227.7331848144531	-584.3384399414064	213.280746459961	216.7933654785156	-457.7523498535157	60.43846511840822	192.0944671630859	-463.5411376953126	75.1072463989258	131.8450164794922	-514.6790161132814	102.0663375854492	103.4631881713867	-369.6382446289064	910.2369384765627	464.4387817382813	-316.1883239746095	486.0566406250001	414.3586120605469	-310.0596008300782	487.4074707031251	290.7950744628906	-327.8838806152345	417.7891235351564	415.8623046875001	-265.4250793457032	410.8388061523439	351.9609680175781	-383.5120544433595	77.2513885498047	351.4713439941406	-346.3122558593751	96.40701293945315	263.6112670898438	-429.0059509277345	31.10059356689454	301.0578918457031	-221.2736816406251	27.83762168884278	289.3597412109376	-226.1049957275391	37.84755325317384	346.9874267578126	-286.7598266601564	25.77905654907227	399.0187683105469	-407.040740966797	1518.3740234375	299.0971374511719	-471.4172363281252	1291.057250976563	299.7022705078125	-241.6148681640626	1284.624389648438	299.0279235839844	-290.8339843750001	1437.760131835938	303.2529907226562	-496.1979370117189	1320.624633789063	201.8171844482422	-464.7777099609376	1446.806274414063	205.2608947753906	-408.1487426757814	1453.585571289063	117.6369552612304	-365.1513366699219	1456.013549804688	97.82376098632811	-358.4837036132813	1126.923950195313	5.668551445007282	-399.7549133300782	1105.681274414063	82.87725067138669	-397.2912597656251	1087.489868164063	23.18502807617183	-200.5620574951172	913.184020996094	78.09863281249999	-228.5903778076172	894.1260375976565	8.618174552917454	-145.1548156738282	839.410095214844	81.32642364501953	-219.7297668457032	822.6101074218752	9.962620735168432	-498.9635009765627	1320.884643554688	380.7788696289062	-469.4431762695314	1441.628784179688	380.4091186523438	-435.9834289550783	1445.32568359375	477.3944396972657	-405.6670227050783	1441.932495117188	513.4776000976564	-430.0757751464845	1111.484252929688	574.4515991210939	-455.0887145996095	1103.194580078125	506.1214294433594	-460.770721435547	1080.1982421875	540.4743041992189	-282.8295288085939	880.2816162109377	546.1773071289064	-354.0600891113282	864.5833129882815	585.5303955078126	-247.1873474121095	799.0573730468752	550.8773803710939	-343.1384887695314	791.2277832031252	590.0583496093751	
